<svg version="1.1" viewBox="0.0 0.0 745.0 578.0" fill="none" stroke="none" stroke-linecap="square" stroke-miterlimit="10" width="745" height="578" xmlns:xlink="http://www.w3.org/1999/xlink" xmlns="http://www.w3.org/2000/svg"><path fill="#ffffff" d="M0 0L745.0 0L745.0 578.0L0 578.0L0 0Z" fill-rule="nonzero"/><path stroke="#333333" stroke-width="1.0" stroke-linecap="butt" d="M129.5 473.5L716.5 473.5" fill-rule="nonzero"/><path fill="#eeeeee" d="M99.5 503.5L129.5 474.5L716.5 474.5L686.5 503.5Z" fill-rule="nonzero"/><path stroke="#cccccc" stroke-width="1.0" stroke-linecap="butt" d="M129.5 375.5L716.5 375.5" fill-rule="nonzero"/><path stroke="#cccccc" stroke-width="1.0" stroke-linecap="butt" d="M129.5 276.5L716.5 276.5" fill-rule="nonzero"/><path stroke="#cccccc" stroke-width="1.0" stroke-linecap="butt" d="M129.5 177.5L716.5 177.5" fill-rule="nonzero"/><path stroke="#cccccc" stroke-width="1.0" stroke-linecap="butt" d="M129.5 79.5L716.5 79.5" fill-rule="nonzero"/><clipPath id="id_0"><path d="M99.9 79.166664L716.1 79.166664L716.1 503.83334L99.9 503.83334L99.9 79.166664Z" clip-rule="nonzero"/></clipPath><path fill="#424242" clip-path="url(#id_0)" d="M371.0 434.0L371.0 474.0L346.0 499.0L346.0 459.0Z" fill-rule="nonzero"/><path fill="#858585" clip-path="url(#id_0)" d="M346.0 459.0L249.0 459.0L274.0 434.0L371.0 434.0Z" fill-rule="nonzero"/><path stroke="#000000" stroke-width="2.0" stroke-linecap="butt" stroke-opacity="0.0" clip-path="url(#id_0)" d="M346.0 499.0L249.0 499.0L249.0 459.0L346.0 459.0Z" fill-rule="nonzero"/><path fill="#666666" clip-path="url(#id_0)" d="M346.0 499.0L249.0 499.0L249.0 459.0L346.0 459.0Z" fill-rule="nonzero"/><path fill="#0b3785" clip-path="url(#id_0)" d="M470.0 448.0L470.0 474.0L445.0 499.0L445.0 473.0Z" fill-rule="nonzero"/><path fill="#4177d6" clip-path="url(#id_0)" d="M445.0 473.0L348.0 473.0L373.0 448.0L470.0 448.0Z" fill-rule="nonzero"/><path stroke="#000000" stroke-width="2.0" stroke-linecap="butt" stroke-opacity="0.0" clip-path="url(#id_0)" d="M445.0 499.0L348.0 499.0L348.0 473.0L445.0 473.0Z" fill-rule="nonzero"/><path fill="#1155cc" clip-path="url(#id_0)" d="M445.0 499.0L348.0 499.0L348.0 473.0L445.0 473.0Z" fill-rule="nonzero"/><path fill="#4d7800" clip-path="url(#id_0)" d="M569.0 150.0L569.0 474.0L544.0 499.0L544.0 175.0Z" fill-rule="nonzero"/><path fill="#91c733" clip-path="url(#id_0)" d="M544.0 175.0L447.0 175.0L472.0 150.0L569.0 150.0Z" fill-rule="nonzero"/><path stroke="#000000" stroke-width="2.0" stroke-linecap="butt" stroke-opacity="0.0" clip-path="url(#id_0)" d="M544.0 499.0L447.0 499.0L447.0 175.0L544.0 175.0Z" fill-rule="nonzero"/><path fill="#76b900" clip-path="url(#id_0)" d="M544.0 499.0L447.0 499.0L447.0 175.0L544.0 175.0Z" fill-rule="nonzero"/><path stroke="#666666" stroke-width="3.0" stroke-linejoin="round" stroke-linecap="round" d="M289.98438 478.0456L288.71875 478.0456L288.71875 469.62372L286.15625 470.5456L286.15625 469.40497L289.78125 468.0456L289.98438 468.0456L289.98438 478.0456ZM300.0625 473.7956Q300.0625 476.01434 299.29688 477.1081Q298.54688 478.18622 296.9375 478.18622Q295.34375 478.18622 294.57812 477.13934Q293.8125 476.07684 293.78125 473.96747L293.78125 472.27997Q293.78125 470.09247 294.53125 469.02997Q295.29688 467.95184 296.92188 467.95184Q298.53125 467.95184 299.28125 468.9831Q300.04688 470.01434 300.0625 472.15497L300.0625 473.7956ZM298.79688 472.07684Q298.79688 470.46747 298.34375 469.7331Q297.90625 468.99872 296.92188 468.99872Q295.95312 468.99872 295.5 469.7331Q295.0625 470.45184 295.04688 471.96747L295.04688 473.99872Q295.04688 475.6081 295.51562 476.38934Q295.98438 477.15497 296.9375 477.15497Q297.875 477.15497 298.32812 476.43622Q298.78125 475.70184 298.79688 474.13934L298.79688 472.07684ZM308.0625 473.7956Q308.0625 476.01434 307.29688 477.1081Q306.54688 478.18622 304.9375 478.18622Q303.34375 478.18622 302.57812 477.13934Q301.8125 476.07684 301.78125 473.96747L301.78125 472.27997Q301.78125 470.09247 302.53125 469.02997Q303.29688 467.95184 304.92188 467.95184Q306.53125 467.95184 307.28125 468.9831Q308.04688 470.01434 308.0625 472.15497L308.0625 473.7956ZM306.79688 472.07684Q306.79688 470.46747 306.34375 469.7331Q305.90625 468.99872 304.92188 468.99872Q303.95312 468.99872 303.5 469.7331Q303.0625 470.45184 303.04688 471.96747L303.04688 473.99872Q303.04688 475.6081 303.51562 476.38934Q303.98438 477.15497 304.9375 477.15497Q305.875 477.15497 306.32812 476.43622Q306.78125 475.70184 306.79688 474.13934L306.79688 472.07684Z" fill-rule="nonzero"/><path fill="#ffffff" d="M289.98438 478.0456L288.71875 478.0456L288.71875 469.62372L286.15625 470.5456L286.15625 469.40497L289.78125 468.0456L289.98438 468.0456L289.98438 478.0456ZM300.0625 473.7956Q300.0625 476.01434 299.29688 477.1081Q298.54688 478.18622 296.9375 478.18622Q295.34375 478.18622 294.57812 477.13934Q293.8125 476.07684 293.78125 473.96747L293.78125 472.27997Q293.78125 470.09247 294.53125 469.02997Q295.29688 467.95184 296.92188 467.95184Q298.53125 467.95184 299.28125 468.9831Q300.04688 470.01434 300.0625 472.15497L300.0625 473.7956ZM298.79688 472.07684Q298.79688 470.46747 298.34375 469.7331Q297.90625 468.99872 296.92188 468.99872Q295.95312 468.99872 295.5 469.7331Q295.0625 470.45184 295.04688 471.96747L295.04688 473.99872Q295.04688 475.6081 295.51562 476.38934Q295.98438 477.15497 296.9375 477.15497Q297.875 477.15497 298.32812 476.43622Q298.78125 475.70184 298.79688 474.13934L298.79688 472.07684ZM308.0625 473.7956Q308.0625 476.01434 307.29688 477.1081Q306.54688 478.18622 304.9375 478.18622Q303.34375 478.18622 302.57812 477.13934Q301.8125 476.07684 301.78125 473.96747L301.78125 472.27997Q301.78125 470.09247 302.53125 469.02997Q303.29688 467.95184 304.92188 467.95184Q306.53125 467.95184 307.28125 468.9831Q308.04688 470.01434 308.0625 472.15497L308.0625 473.7956ZM306.79688 472.07684Q306.79688 470.46747 306.34375 469.7331Q305.90625 468.99872 304.92188 468.99872Q303.95312 468.99872 303.5 469.7331Q303.0625 470.45184 303.04688 471.96747L303.04688 473.99872Q303.04688 475.6081 303.51562 476.38934Q303.98438 477.15497 304.9375 477.15497Q305.875 477.15497 306.32812 476.43622Q306.78125 475.70184 306.79688 474.13934L306.79688 472.07684Z" fill-rule="nonzero"/><path stroke="#1155cc" stroke-width="3.0" stroke-linejoin="round" stroke-linecap="round" d="M393.79688 480.37595L393.79688 481.43845L393.5625 481.43845Q392.07812 481.4697 391.20312 482.31345Q390.32812 483.1572 390.1875 484.70407Q390.98438 483.79782 392.34375 483.79782Q393.64062 483.79782 394.40625 484.7197Q395.1875 485.62595 395.1875 487.07907Q395.1875 488.62595 394.34375 489.54782Q393.51562 490.4697 392.10938 490.4697Q390.6875 490.4697 389.79688 489.37595Q388.90625 488.26657 388.90625 486.54782L388.90625 486.06345Q388.90625 483.31345 390.07812 481.86032Q391.25 480.4072 393.5625 480.37595L393.79688 480.37595ZM392.125 484.86032Q391.48438 484.86032 390.9375 485.25095Q390.39062 485.62595 390.17188 486.2197L390.17188 486.68845Q390.17188 487.92282 390.71875 488.67282Q391.28125 489.42282 392.10938 489.42282Q392.96875 489.42282 393.45312 488.79782Q393.9375 488.1572 393.9375 487.14157Q393.9375 486.11032 393.4375 485.48532Q392.95312 484.86032 392.125 484.86032ZM401.79688 480.37595L401.79688 481.43845L401.5625 481.43845Q400.07812 481.4697 399.20312 482.31345Q398.32812 483.1572 398.1875 484.70407Q398.98438 483.79782 400.34375 483.79782Q401.64062 483.79782 402.40625 484.7197Q403.1875 485.62595 403.1875 487.07907Q403.1875 488.62595 402.34375 489.54782Q401.51562 490.4697 400.10938 490.4697Q398.6875 490.4697 397.79688 489.37595Q396.90625 488.26657 396.90625 486.54782L396.90625 486.06345Q396.90625 483.31345 398.07812 481.86032Q399.25 480.4072 401.5625 480.37595L401.79688 480.37595ZM400.125 484.86032Q399.48438 484.86032 398.9375 485.25095Q398.39062 485.62595 398.17188 486.2197L398.17188 486.68845Q398.17188 487.92282 398.71875 488.67282Q399.28125 489.42282 400.10938 489.42282Q400.96875 489.42282 401.45312 488.79782Q401.9375 488.1572 401.9375 487.14157Q401.9375 486.11032 401.4375 485.48532Q400.95312 484.86032 400.125 484.86032Z" fill-rule="nonzero"/><path fill="#ffffff" d="M393.79688 480.37595L393.79688 481.43845L393.5625 481.43845Q392.07812 481.4697 391.20312 482.31345Q390.32812 483.1572 390.1875 484.70407Q390.98438 483.79782 392.34375 483.79782Q393.64062 483.79782 394.40625 484.7197Q395.1875 485.62595 395.1875 487.07907Q395.1875 488.62595 394.34375 489.54782Q393.51562 490.4697 392.10938 490.4697Q390.6875 490.4697 389.79688 489.37595Q388.90625 488.26657 388.90625 486.54782L388.90625 486.06345Q388.90625 483.31345 390.07812 481.86032Q391.25 480.4072 393.5625 480.37595L393.79688 480.37595ZM392.125 484.86032Q391.48438 484.86032 390.9375 485.25095Q390.39062 485.62595 390.17188 486.2197L390.17188 486.68845Q390.17188 487.92282 390.71875 488.67282Q391.28125 489.42282 392.10938 489.42282Q392.96875 489.42282 393.45312 488.79782Q393.9375 488.1572 393.9375 487.14157Q393.9375 486.11032 393.4375 485.48532Q392.95312 484.86032 392.125 484.86032ZM401.79688 480.37595L401.79688 481.43845L401.5625 481.43845Q400.07812 481.4697 399.20312 482.31345Q398.32812 483.1572 398.1875 484.70407Q398.98438 483.79782 400.34375 483.79782Q401.64062 483.79782 402.40625 484.7197Q403.1875 485.62595 403.1875 487.07907Q403.1875 488.62595 402.34375 489.54782Q401.51562 490.4697 400.10938 490.4697Q398.6875 490.4697 397.79688 489.37595Q396.90625 488.26657 396.90625 486.54782L396.90625 486.06345Q396.90625 483.31345 398.07812 481.86032Q399.25 480.4072 401.5625 480.37595L401.79688 480.37595ZM400.125 484.86032Q399.48438 484.86032 398.9375 485.25095Q398.39062 485.62595 398.17188 486.2197L398.17188 486.68845Q398.17188 487.92282 398.71875 488.67282Q399.28125 489.42282 400.10938 489.42282Q400.96875 489.42282 401.45312 488.79782Q401.9375 488.1572 401.9375 487.14157Q401.9375 486.11032 401.4375 485.48532Q400.95312 484.86032 400.125 484.86032Z" fill-rule="nonzero"/><path stroke="#76b900" stroke-width="3.0" stroke-linejoin="round" stroke-linecap="round" d="M489.85938 186.4473Q489.85938 187.1973 489.46875 187.77542Q489.07812 188.35355 488.40625 188.68167Q489.1875 189.02542 489.64062 189.66605Q490.09375 190.30667 490.09375 191.11917Q490.09375 192.41605 489.21875 193.18167Q488.35938 193.9473 486.9375 193.9473Q485.5 193.9473 484.625 193.18167Q483.76562 192.40042 483.76562 191.11917Q483.76562 190.30667 484.20312 189.66605Q484.64062 189.0098 485.42188 188.68167Q484.76562 188.35355 484.375 187.77542Q484.0 187.18167 484.0 186.4473Q484.0 185.1973 484.79688 184.46292Q485.60938 183.71292 486.9375 183.71292Q488.25 183.71292 489.04688 184.46292Q489.85938 185.1973 489.85938 186.4473ZM488.82812 191.08792Q488.82812 190.2598 488.29688 189.74417Q487.76562 189.21292 486.90625 189.21292Q486.0625 189.21292 485.54688 189.72855Q485.03125 190.24417 485.03125 191.10355Q485.03125 191.9473 485.53125 192.43167Q486.03125 192.91605 486.9375 192.91605Q487.8125 192.91605 488.3125 192.43167Q488.82812 191.93167 488.82812 191.08792ZM486.9375 184.7598Q486.1875 184.7598 485.71875 185.22855Q485.26562 185.68167 485.26562 186.47855Q485.26562 187.22855 485.71875 187.6973Q486.17188 188.16605 486.92188 188.16605Q487.6875 188.16605 488.14062 187.6973Q488.59375 187.22855 488.59375 186.47855Q488.59375 185.71292 488.125 185.24417Q487.65625 184.7598 486.9375 184.7598ZM498.34375 193.80667L491.82812 193.80667L491.82812 192.90042L495.26562 189.0723Q496.03125 188.1973 496.32812 187.66605Q496.625 187.11917 496.625 186.52542Q496.625 185.7598 496.14062 185.2598Q495.67188 184.7598 494.89062 184.7598Q493.95312 184.7598 493.42188 185.29105Q492.90625 185.8223 492.90625 186.79105L491.64062 186.79105Q491.64062 185.41605 492.51562 184.5723Q493.40625 183.71292 494.89062 183.71292Q496.28125 183.71292 497.07812 184.4473Q497.89062 185.16605 497.89062 186.3848Q497.89062 187.85355 496.01562 189.8848L493.35938 192.77542L498.34375 192.77542L498.34375 193.80667ZM506.0625 189.55667Q506.0625 191.77542 505.29688 192.86917Q504.54688 193.9473 502.9375 193.9473Q501.34375 193.9473 500.57812 192.90042Q499.8125 191.83792 499.78125 189.72855L499.78125 188.04105Q499.78125 185.85355 500.53125 184.79105Q501.29688 183.71292 502.92188 183.71292Q504.53125 183.71292 505.28125 184.74417Q506.04688 185.77542 506.0625 187.91605L506.0625 189.55667ZM504.79688 187.83792Q504.79688 186.22855 504.34375 185.49417Q503.90625 184.7598 502.92188 184.7598Q501.95312 184.7598 501.5 185.49417Q501.0625 186.21292 501.04688 187.72855L501.04688 189.7598Q501.04688 191.36917 501.51562 192.15042Q501.98438 192.91605 502.9375 192.91605Q503.875 192.91605 504.32812 192.1973Q504.78125 191.46292 504.79688 189.90042L504.79688 187.83792Z" fill-rule="nonzero"/><path fill="#000000" d="M489.85938 186.4473Q489.85938 187.1973 489.46875 187.77542Q489.07812 188.35355 488.40625 188.68167Q489.1875 189.02542 489.64062 189.66605Q490.09375 190.30667 490.09375 191.11917Q490.09375 192.41605 489.21875 193.18167Q488.35938 193.9473 486.9375 193.9473Q485.5 193.9473 484.625 193.18167Q483.76562 192.40042 483.76562 191.11917Q483.76562 190.30667 484.20312 189.66605Q484.64062 189.0098 485.42188 188.68167Q484.76562 188.35355 484.375 187.77542Q484.0 187.18167 484.0 186.4473Q484.0 185.1973 484.79688 184.46292Q485.60938 183.71292 486.9375 183.71292Q488.25 183.71292 489.04688 184.46292Q489.85938 185.1973 489.85938 186.4473ZM488.82812 191.08792Q488.82812 190.2598 488.29688 189.74417Q487.76562 189.21292 486.90625 189.21292Q486.0625 189.21292 485.54688 189.72855Q485.03125 190.24417 485.03125 191.10355Q485.03125 191.9473 485.53125 192.43167Q486.03125 192.91605 486.9375 192.91605Q487.8125 192.91605 488.3125 192.43167Q488.82812 191.93167 488.82812 191.08792ZM486.9375 184.7598Q486.1875 184.7598 485.71875 185.22855Q485.26562 185.68167 485.26562 186.47855Q485.26562 187.22855 485.71875 187.6973Q486.17188 188.16605 486.92188 188.16605Q487.6875 188.16605 488.14062 187.6973Q488.59375 187.22855 488.59375 186.47855Q488.59375 185.71292 488.125 185.24417Q487.65625 184.7598 486.9375 184.7598ZM498.34375 193.80667L491.82812 193.80667L491.82812 192.90042L495.26562 189.0723Q496.03125 188.1973 496.32812 187.66605Q496.625 187.11917 496.625 186.52542Q496.625 185.7598 496.14062 185.2598Q495.67188 184.7598 494.89062 184.7598Q493.95312 184.7598 493.42188 185.29105Q492.90625 185.8223 492.90625 186.79105L491.64062 186.79105Q491.64062 185.41605 492.51562 184.5723Q493.40625 183.71292 494.89062 183.71292Q496.28125 183.71292 497.07812 184.4473Q497.89062 185.16605 497.89062 186.3848Q497.89062 187.85355 496.01562 189.8848L493.35938 192.77542L498.34375 192.77542L498.34375 193.80667ZM506.0625 189.55667Q506.0625 191.77542 505.29688 192.86917Q504.54688 193.9473 502.9375 193.9473Q501.34375 193.9473 500.57812 192.90042Q499.8125 191.83792 499.78125 189.72855L499.78125 188.04105Q499.78125 185.85355 500.53125 184.79105Q501.29688 183.71292 502.92188 183.71292Q504.53125 183.71292 505.28125 184.74417Q506.04688 185.77542 506.0625 187.91605L506.0625 189.55667ZM504.79688 187.83792Q504.79688 186.22855 504.34375 185.49417Q503.90625 184.7598 502.92188 184.7598Q501.95312 184.7598 501.5 185.49417Q501.0625 186.21292 501.04688 187.72855L501.04688 189.7598Q501.04688 191.36917 501.51562 192.15042Q501.98438 192.91605 502.9375 192.91605Q503.875 192.91605 504.32812 192.1973Q504.78125 191.46292 504.79688 189.90042L504.79688 187.83792Z" fill-rule="nonzero"/><path fill="#000000" d="M41.89998 307.45312L31.884356 307.45312L31.884356 305.46875L38.978104 303.09375Q39.96248 302.76562 40.46248 302.60938Q39.915604 302.4375 38.853104 302.07812L31.884356 299.6875L31.884356 297.89062L41.89998 297.89062L41.89998 299.17188L33.509354 299.17188L41.89998 302.09375L41.89998 303.28125L33.36873 306.1875L41.89998 306.1875L41.89998 307.45312ZM33.290604 296.5625L31.884356 296.5625L31.884356 295.34375L33.290604 295.34375L33.290604 296.5625ZM41.89998 296.5625L34.634354 296.5625L34.634354 295.34375L41.89998 295.34375L41.89998 296.5625ZM41.89998 293.46875L31.884356 293.46875L31.884356 289.71875Q31.884356 288.5625 32.196854 287.875Q32.49373 287.17188 33.11873 286.78125Q33.74373 286.39062 34.446854 286.39062Q35.08748 286.39062 35.64998 286.75Q36.21248 287.09375 36.571854 287.79688Q36.83748 286.89062 37.478104 286.40625Q38.11873 285.90625 38.99373 285.90625Q39.696854 285.90625 40.30623 286.20312Q40.915604 286.5 41.24373 286.9375Q41.571854 287.375 41.74373 288.04688Q41.89998 288.70312 41.89998 289.65625L41.89998 293.46875ZM36.08748 292.14062L36.08748 289.98438Q36.08748 289.09375 35.978104 288.71875Q35.821854 288.20312 35.478104 287.95312Q35.11873 287.70312 34.603104 287.70312Q34.103104 287.70312 33.728104 287.9375Q33.33748 288.17188 33.196854 288.625Q33.05623 289.0625 33.05623 290.14062L33.05623 292.14062L36.08748 292.14062ZM40.71248 292.14062L40.71248 289.65625Q40.71248 289.01562 40.665604 288.75Q40.58748 288.29688 40.39998 287.98438Q40.196854 287.67188 39.83748 287.48438Q39.478104 287.28125 38.99373 287.28125Q38.43123 287.28125 38.02498 287.57812Q37.603104 287.85938 37.446854 288.375Q37.27498 288.875 37.27498 289.82812L37.27498 292.14062L40.71248 292.14062ZM42.071854 285.5L31.71248 282.59375L31.71248 281.60938L42.071854 284.51562L42.071854 285.5ZM39.728104 281.0625L39.540604 279.85938Q40.27498 279.75 40.665604 279.28125Q41.05623 278.8125 41.05623 277.96875Q41.05623 277.125 40.71248 276.71875Q40.36873 276.29688 39.89998 276.29688Q39.478104 276.29688 39.24373 276.67188Q39.071854 276.92188 38.821854 277.92188Q38.478104 279.28125 38.228104 279.8125Q37.978104 280.32812 37.540604 280.59375Q37.103104 280.85938 36.571854 280.85938Q36.08748 280.85938 35.68123 280.64062Q35.259354 280.42188 34.978104 280.03125Q34.77498 279.75 34.634354 279.26562Q34.478104 278.76562 34.478104 278.1875Q34.478104 277.34375 34.728104 276.70312Q34.96248 276.04688 35.384354 275.73438Q35.80623 275.42188 36.509354 275.3125L36.68123 276.51562Q36.11873 276.59375 35.80623 277.0Q35.49373 277.39062 35.49373 278.10938Q35.49373 278.95312 35.77498 279.3125Q36.040604 279.67188 36.43123 279.67188Q36.665604 279.67188 36.853104 279.53125Q37.05623 279.375 37.18123 279.04688Q37.24373 278.875 37.49373 277.96875Q37.853104 276.65625 38.071854 276.14062Q38.290604 275.625 38.71248 275.34375Q39.134354 275.04688 39.759354 275.04688Q40.384354 275.04688 40.93123 275.40625Q41.46248 275.75 41.77498 276.4375Q42.071854 277.10938 42.071854 277.96875Q42.071854 279.375 41.478104 280.125Q40.884354 280.85938 39.728104 281.0625Z" fill-rule="nonzero"/><path fill="#000000" d="M87.4 473.59897Q87.4 472.06772 87.7125 471.14584Q88.025 470.20834 88.63438 469.70834Q89.25938 469.20834 90.19688 469.20834Q90.88438 469.20834 91.4 469.4896Q91.93125 469.77084 92.275 470.3021Q92.61875 470.81772 92.80625 471.56772Q92.99375 472.31772 92.99375 473.59897Q92.99375 475.1146 92.68125 476.03647Q92.38438 476.95834 91.75938 477.47397Q91.15 477.97397 90.19688 477.97397Q88.9625 477.97397 88.24375 477.08334Q87.4 476.02084 87.4 473.59897ZM88.47813 473.59897Q88.47813 475.70834 88.97813 476.41147Q89.47813 477.1146 90.19688 477.1146Q90.93125 477.1146 91.41563 476.41147Q91.91563 475.70834 91.91563 473.59897Q91.91563 471.47397 91.41563 470.78647Q90.93125 470.08334 90.18125 470.08334Q89.4625 470.08334 89.025 470.69272Q88.47813 471.47397 88.47813 473.59897Z" fill-rule="nonzero"/><path fill="#000000" d="M78.94688 378.15103L78.94688 379.16666L73.25938 379.16666Q73.25938 378.79166 73.38438 378.43228Q73.60313 377.85416 74.07188 377.29166Q74.55625 376.72916 75.4625 375.99478Q76.86875 374.83853 77.35313 374.16666Q77.85313 373.49478 77.85313 372.90103Q77.85313 372.27603 77.4 371.85416Q76.94688 371.41666 76.22813 371.41666Q75.4625 371.41666 75.00938 371.86978Q74.55625 372.3229 74.54063 373.1354L73.4625 373.02603Q73.57188 371.80728 74.29063 371.18228Q75.025 370.54166 76.25938 370.54166Q77.49375 370.54166 78.2125 371.22916Q78.93125 371.91666 78.93125 372.93228Q78.93125 373.4479 78.7125 373.9479Q78.50938 374.43228 78.00938 374.99478Q77.525 375.54166 76.4 376.49478Q75.44688 377.29166 75.16563 377.58853Q74.9 377.86978 74.72813 378.15103L78.94688 378.15103ZM80.4 376.91666L81.50938 376.8229Q81.63438 377.6354 82.07188 378.04166Q82.525 378.4479 83.16563 378.4479Q83.91563 378.4479 84.44688 377.86978Q84.97813 377.29166 84.97813 376.35416Q84.97813 375.4479 84.4625 374.93228Q83.9625 374.40103 83.13438 374.40103Q82.63438 374.40103 82.2125 374.6354Q81.80625 374.86978 81.57188 375.22916L80.5875 375.10416L81.41563 370.6979L85.69688 370.6979L85.69688 371.6979L82.25938 371.6979L81.80625 374.0104Q82.57188 373.46353 83.41563 373.46353Q84.54063 373.46353 85.30625 374.24478Q86.0875 375.02603 86.0875 376.2604Q86.0875 377.41666 85.41563 378.27603Q84.5875 379.30728 83.16563 379.30728Q81.99375 379.30728 81.24375 378.65103Q80.50938 377.99478 80.4 376.91666ZM87.4 374.93228Q87.4 373.40103 87.7125 372.47916Q88.025 371.54166 88.63438 371.04166Q89.25938 370.54166 90.19688 370.54166Q90.88438 370.54166 91.4 370.8229Q91.93125 371.10416 92.275 371.6354Q92.61875 372.15103 92.80625 372.90103Q92.99375 373.65103 92.99375 374.93228Q92.99375 376.4479 92.68125 377.36978Q92.38438 378.29166 91.75938 378.80728Q91.15 379.30728 90.19688 379.30728Q88.9625 379.30728 88.24375 378.41666Q87.4 377.35416 87.4 374.93228ZM88.47813 374.93228Q88.47813 377.04166 88.97813 377.74478Q89.47813 378.4479 90.19688 378.4479Q90.93125 378.4479 91.41563 377.74478Q91.91563 377.04166 91.91563 374.93228Q91.91563 372.80728 91.41563 372.11978Q90.93125 371.41666 90.18125 371.41666Q89.4625 371.41666 89.025 372.02603Q88.47813 372.80728 88.47813 374.93228Z" fill-rule="nonzero"/><path fill="#000000" d="M73.4 278.25L74.50938 278.15625Q74.63438 278.96875 75.07188 279.375Q75.525 279.78125 76.16563 279.78125Q76.91563 279.78125 77.44688 279.20312Q77.97813 278.625 77.97813 277.6875Q77.97813 276.78125 77.4625 276.26562Q76.9625 275.73438 76.13438 275.73438Q75.63438 275.73438 75.2125 275.96875Q74.80625 276.20312 74.57188 276.5625L73.5875 276.4375L74.41563 272.03125L78.69688 272.03125L78.69688 273.03125L75.25938 273.03125L74.80625 275.34375Q75.57188 274.79688 76.41563 274.79688Q77.54063 274.79688 78.30625 275.57812Q79.0875 276.35938 79.0875 277.59375Q79.0875 278.75 78.41563 279.60938Q77.5875 280.64062 76.16563 280.64062Q74.99375 280.64062 74.24375 279.98438Q73.50938 279.32812 73.4 278.25ZM80.4 276.26562Q80.4 274.73438 80.7125 273.8125Q81.025 272.875 81.63438 272.375Q82.25938 271.875 83.19688 271.875Q83.88438 271.875 84.4 272.15625Q84.93125 272.4375 85.275 272.96875Q85.61875 273.48438 85.80625 274.23438Q85.99375 274.98438 85.99375 276.26562Q85.99375 277.78125 85.68125 278.70312Q85.38438 279.625 84.75938 280.14062Q84.15 280.64062 83.19688 280.64062Q81.9625 280.64062 81.24375 279.75Q80.4 278.6875 80.4 276.26562ZM81.47813 276.26562Q81.47813 278.375 81.97813 279.07812Q82.47813 279.78125 83.19688 279.78125Q83.93125 279.78125 84.41563 279.07812Q84.91563 278.375 84.91563 276.26562Q84.91563 274.14062 84.41563 273.45312Q83.93125 272.75 83.18125 272.75Q82.4625 272.75 82.025 273.35938Q81.47813 274.14062 81.47813 276.26562ZM87.4 276.26562Q87.4 274.73438 87.7125 273.8125Q88.025 272.875 88.63438 272.375Q89.25938 271.875 90.19688 271.875Q90.88438 271.875 91.4 272.15625Q91.93125 272.4375 92.275 272.96875Q92.61875 273.48438 92.80625 274.23438Q92.99375 274.98438 92.99375 276.26562Q92.99375 277.78125 92.68125 278.70312Q92.38438 279.625 91.75938 280.14062Q91.15 280.64062 90.19688 280.64062Q88.9625 280.64062 88.24375 279.75Q87.4 278.6875 87.4 276.26562ZM88.47813 276.26562Q88.47813 278.375 88.97813 279.07812Q89.47813 279.78125 90.19688 279.78125Q90.93125 279.78125 91.41563 279.07812Q91.91563 278.375 91.91563 276.26562Q91.91563 274.14062 91.41563 273.45312Q90.93125 272.75 90.18125 272.75Q89.4625 272.75 89.025 273.35938Q88.47813 274.14062 88.47813 276.26562Z" fill-rule="nonzero"/><path fill="#000000" d="M73.4625 174.36458L73.4625 173.34895L79.025 173.34895L79.025 174.17708Q78.2125 175.05208 77.4 176.5052Q76.60313 177.9427 76.16563 179.47395Q75.8375 180.55208 75.75938 181.83333L74.66563 181.83333Q74.68125 180.8177 75.05625 179.3802Q75.44688 177.9427 76.15 176.61458Q76.86875 175.28645 77.68125 174.36458L73.4625 174.36458ZM80.4 179.58333L81.50938 179.48958Q81.63438 180.30208 82.07188 180.70833Q82.525 181.11458 83.16563 181.11458Q83.91563 181.11458 84.44688 180.53645Q84.97813 179.95833 84.97813 179.02083Q84.97813 178.11458 84.4625 177.59895Q83.9625 177.0677 83.13438 177.0677Q82.63438 177.0677 82.2125 177.30208Q81.80625 177.53645 81.57188 177.89583L80.5875 177.77083L81.41563 173.36458L85.69688 173.36458L85.69688 174.36458L82.25938 174.36458L81.80625 176.67708Q82.57188 176.1302 83.41563 176.1302Q84.54063 176.1302 85.30625 176.91145Q86.0875 177.6927 86.0875 178.92708Q86.0875 180.08333 85.41563 180.9427Q84.5875 181.97395 83.16563 181.97395Q81.99375 181.97395 81.24375 181.3177Q80.50938 180.66145 80.4 179.58333ZM87.4 177.59895Q87.4 176.0677 87.7125 175.14583Q88.025 174.20833 88.63438 173.70833Q89.25938 173.20833 90.19688 173.20833Q90.88438 173.20833 91.4 173.48958Q91.93125 173.77083 92.275 174.30208Q92.61875 174.8177 92.80625 175.5677Q92.99375 176.3177 92.99375 177.59895Q92.99375 179.11458 92.68125 180.03645Q92.38438 180.95833 91.75938 181.47395Q91.15 181.97395 90.19688 181.97395Q88.9625 181.97395 88.24375 181.08333Q87.4 180.02083 87.4 177.59895ZM88.47813 177.59895Q88.47813 179.70833 88.97813 180.41145Q89.47813 181.11458 90.19688 181.11458Q90.93125 181.11458 91.41563 180.41145Q91.91563 179.70833 91.91563 177.59895Q91.91563 175.47395 91.41563 174.78645Q90.93125 174.08333 90.18125 174.08333Q89.4625 174.08333 89.025 174.6927Q88.47813 175.47395 88.47813 177.59895Z" fill-rule="nonzero"/><path fill="#000000" d="M70.36875 83.166664L69.32188 83.166664L69.32188 76.447914Q68.93125 76.80729 68.30625 77.18229Q67.69688 77.541664 67.2125 77.71354L67.2125 76.697914Q68.0875 76.27604 68.74375 75.697914Q69.41563 75.104164 69.69688 74.541664L70.36875 74.541664L70.36875 83.166664ZM73.4 78.93229Q73.4 77.40104 73.7125 76.479164Q74.025 75.541664 74.63438 75.041664Q75.25938 74.541664 76.19688 74.541664Q76.88438 74.541664 77.4 74.822914Q77.93125 75.104164 78.275 75.635414Q78.61875 76.15104 78.80625 76.90104Q78.99375 77.65104 78.99375 78.93229Q78.99375 80.447914 78.68125 81.36979Q78.38438 82.291664 77.75938 82.80729Q77.15 83.30729 76.19688 83.30729Q74.9625 83.30729 74.24375 82.416664Q73.4 81.354164 73.4 78.93229ZM74.47813 78.93229Q74.47813 81.041664 74.97813 81.74479Q75.47813 82.447914 76.19688 82.447914Q76.93125 82.447914 77.41563 81.74479Q77.91563 81.041664 77.91563 78.93229Q77.91563 76.80729 77.41563 76.11979Q76.93125 75.416664 76.18125 75.416664Q75.4625 75.416664 75.025 76.02604Q74.47813 76.80729 74.47813 78.93229ZM80.4 78.93229Q80.4 77.40104 80.7125 76.479164Q81.025 75.541664 81.63438 75.041664Q82.25938 74.541664 83.19688 74.541664Q83.88438 74.541664 84.4 74.822914Q84.93125 75.104164 85.275 75.635414Q85.61875 76.15104 85.80625 76.90104Q85.99375 77.65104 85.99375 78.93229Q85.99375 80.447914 85.68125 81.36979Q85.38438 82.291664 84.75938 82.80729Q84.15 83.30729 83.19688 83.30729Q81.9625 83.30729 81.24375 82.416664Q80.4 81.354164 80.4 78.93229ZM81.47813 78.93229Q81.47813 81.041664 81.97813 81.74479Q82.47813 82.447914 83.19688 82.447914Q83.93125 82.447914 84.41563 81.74479Q84.91563 81.041664 84.91563 78.93229Q84.91563 76.80729 84.41563 76.11979Q83.93125 75.416664 83.18125 75.416664Q82.4625 75.416664 82.025 76.02604Q81.47813 76.80729 81.47813 78.93229ZM87.4 78.93229Q87.4 77.40104 87.7125 76.479164Q88.025 75.541664 88.63438 75.041664Q89.25938 74.541664 90.19688 74.541664Q90.88438 74.541664 91.4 74.822914Q91.93125 75.104164 92.275 75.635414Q92.61875 76.15104 92.80625 76.90104Q92.99375 77.65104 92.99375 78.93229Q92.99375 80.447914 92.68125 81.36979Q92.38438 82.291664 91.75938 82.80729Q91.15 83.30729 90.19688 83.30729Q88.9625 83.30729 88.24375 82.416664Q87.4 81.354164 87.4 78.93229ZM88.47813 78.93229Q88.47813 81.041664 88.97813 81.74479Q89.47813 82.447914 90.19688 82.447914Q90.93125 82.447914 91.41563 81.74479Q91.91563 81.041664 91.91563 78.93229Q91.91563 76.80729 91.41563 76.11979Q90.93125 75.416664 90.18125 75.416664Q89.4625 75.416664 89.025 76.02604Q88.47813 76.80729 88.47813 78.93229Z" fill-rule="nonzero"/><path fill="#666666" d="M220.0 534.6C220.0 534.0477 220.44771 533.6 221.0 533.6L231.0 533.6C231.55229 533.6 232.0 534.0477 232.0 534.6L232.0 544.6C232.0 545.1523 231.55229 545.6 231.0 545.6L221.0 545.6C220.44771 545.6 220.0 545.1523 220.0 544.6Z" fill-rule="nonzero"/><path fill="#1a1a1a" d="M241.23438 545.1L241.23438 533.64685L245.1875 533.64685Q246.51562 533.64685 247.21875 533.8031Q248.20312 534.0375 248.90625 534.6312Q249.8125 535.39685 250.25 536.58435Q250.70312 537.77185 250.70312 539.3031Q250.70312 540.6156 250.39062 541.6312Q250.09375 542.6312 249.60938 543.2875Q249.14062 543.9437 248.57812 544.33435Q248.01562 544.70935 247.20312 544.9125Q246.40625 545.1 245.375 545.1L241.23438 545.1ZM242.75 543.7406L245.20312 543.7406Q246.32812 543.7406 246.96875 543.5375Q247.625 543.3187 248.0 542.9437Q248.54688 542.39685 248.84375 541.4906Q249.14062 540.58435 249.14062 539.2875Q249.14062 537.4906 248.54688 536.52185Q247.96875 535.5531 247.125 535.225Q246.51562 534.9906 245.15625 534.9906L242.75 534.9906L242.75 543.7406ZM253.0625 535.2562L253.0625 533.64685L254.46875 533.64685L254.46875 535.2562L253.0625 535.2562ZM253.0625 545.1L253.0625 536.8031L254.46875 536.8031L254.46875 545.1L253.0625 545.1ZM257.04688 545.1L257.04688 536.8031L258.3125 536.8031L258.3125 538.0531Q258.79688 537.1781 259.20312 536.89685Q259.60938 536.6156 260.10938 536.6156Q260.8125 536.6156 261.54688 537.0687L261.0625 538.3656Q260.54688 538.0687 260.03125 538.0687Q259.57812 538.0687 259.20312 538.35Q258.84375 538.6156 258.6875 539.1156Q258.45312 539.8656 258.45312 540.7562L258.45312 545.1L257.04688 545.1ZM267.73438 542.4281L269.1875 542.6Q268.84375 543.8812 267.90625 544.58435Q266.98438 545.2875 265.54688 545.2875Q263.71875 545.2875 262.65625 544.1625Q261.59375 543.0375 261.59375 541.02185Q261.59375 538.9281 262.67188 537.77185Q263.75 536.6156 265.46875 536.6156Q267.125 536.6156 268.17188 537.7562Q269.23438 538.8812 269.23438 540.9281Q269.23438 541.0531 269.23438 541.3031L263.04688 541.3031Q263.125 542.6781 263.8125 543.4125Q264.51562 544.1312 265.54688 544.1312Q266.32812 544.1312 266.875 543.725Q267.42188 543.3187 267.73438 542.4281ZM263.125 540.14685L267.75 540.14685Q267.65625 539.1 267.21875 538.58435Q266.54688 537.77185 265.48438 537.77185Q264.51562 537.77185 263.84375 538.4281Q263.1875 539.0687 263.125 540.14685ZM276.46875 542.0531L277.85938 542.2406Q277.625 543.6625 276.6875 544.475Q275.76562 545.2875 274.40625 545.2875Q272.70312 545.2875 271.65625 544.1781Q270.625 543.0531 270.625 540.975Q270.625 539.6312 271.0625 538.6312Q271.51562 537.6156 272.42188 537.1156Q273.34375 536.6156 274.40625 536.6156Q275.76562 536.6156 276.625 537.3031Q277.48438 537.975 277.71875 539.2406L276.35938 539.4437Q276.15625 538.6156 275.65625 538.1937Q275.17188 537.77185 274.46875 537.77185Q273.40625 537.77185 272.73438 538.5375Q272.07812 539.2875 272.07812 540.9437Q272.07812 542.6156 272.71875 543.3812Q273.35938 544.1312 274.39062 544.1312Q275.21875 544.1312 275.76562 543.6312Q276.32812 543.1156 276.46875 542.0531ZM282.125 543.83435L282.32812 545.08435Q281.73438 545.20935 281.26562 545.20935Q280.5 545.20935 280.07812 544.975Q279.65625 544.725 279.48438 544.33435Q279.3125 543.9281 279.3125 542.6625L279.3125 537.89685L278.28125 537.89685L278.28125 536.8031L279.3125 536.8031L279.3125 534.7406L280.71875 533.89685L280.71875 536.8031L282.125 536.8031L282.125 537.89685L280.71875 537.89685L280.71875 542.7406Q280.71875 543.35 280.78125 543.52185Q280.85938 543.6937 281.03125 543.8031Q281.20312 543.89685 281.51562 543.89685Q281.75 543.89685 282.125 543.83435ZM286.71875 541.4125L288.15625 541.2875Q288.25 542.14685 288.625 542.70935Q289.0 543.2562 289.78125 543.6Q290.5625 543.9281 291.53125 543.9281Q292.40625 543.9281 293.0625 543.6781Q293.73438 543.4125 294.04688 542.975Q294.375 542.52185 294.375 541.9906Q294.375 541.4437 294.0625 541.0531Q293.75 540.64685 293.03125 540.3656Q292.57812 540.1937 291.0 539.8187Q289.42188 539.4281 288.78125 539.1Q287.96875 538.6625 287.5625 538.0375Q287.15625 537.39685 287.15625 536.6Q287.15625 535.7406 287.64062 534.9906Q288.14062 534.225 289.07812 533.83435Q290.03125 533.4437 291.1875 533.4437Q292.46875 533.4437 293.4375 533.8656Q294.40625 534.27185 294.92188 535.0687Q295.45312 535.8656 295.5 536.8656L294.04688 536.975Q293.92188 535.89685 293.25 535.35Q292.57812 534.7875 291.25 534.7875Q289.875 534.7875 289.25 535.2875Q288.625 535.7875 288.625 536.5062Q288.625 537.1156 289.0625 537.52185Q289.5 537.9125 291.34375 538.33435Q293.20312 538.7562 293.89062 539.0687Q294.89062 539.52185 295.35938 540.2406Q295.84375 540.9437 295.84375 541.8656Q295.84375 542.77185 295.3125 543.58435Q294.79688 544.39685 293.8125 544.85Q292.82812 545.3031 291.60938 545.3031Q290.04688 545.3031 289.0 544.85Q287.95312 544.3812 287.34375 543.475Q286.75 542.5687 286.71875 541.4125ZM297.67188 542.0687L299.07812 541.8812Q299.32812 543.08435 299.90625 543.6156Q300.48438 544.1312 301.32812 544.1312Q302.3125 544.1312 303.0 543.4437Q303.6875 542.7562 303.6875 541.7406Q303.6875 540.77185 303.04688 540.14685Q302.42188 539.52185 301.4375 539.52185Q301.04688 539.52185 300.45312 539.6781L300.60938 538.4437Q300.75 538.45935 300.82812 538.45935Q301.73438 538.45935 302.45312 537.9906Q303.17188 537.52185 303.17188 536.5375Q303.17188 535.77185 302.64062 535.27185Q302.125 534.7562 301.29688 534.7562Q300.46875 534.7562 299.92188 535.27185Q299.375 535.7875 299.21875 536.8187L297.8125 536.5687Q298.07812 535.14685 298.98438 534.3812Q299.90625 533.6 301.26562 533.6Q302.20312 533.6 302.98438 534.0062Q303.78125 534.39685 304.1875 535.1Q304.60938 535.7875 304.60938 536.5687Q304.60938 537.3187 304.20312 537.9281Q303.8125 538.5375 303.03125 538.89685Q304.04688 539.1312 304.60938 539.8656Q305.17188 540.6 305.17188 541.70935Q305.17188 543.20935 304.07812 544.2562Q302.98438 545.3031 301.3125 545.3031Q299.8125 545.3031 298.8125 544.4125Q297.8125 543.5062 297.67188 542.0687Z" fill-rule="nonzero"/><path fill="#1155cc" d="M322.0 534.6C322.0 534.0477 322.44772 533.6 323.0 533.6L333.0 533.6C333.55228 533.6 334.0 534.0477 334.0 534.6L334.0 544.6C334.0 545.1523 333.55228 545.6 333.0 545.6L323.0 545.6C322.44772 545.6 322.0 545.1523 322.0 544.6Z" fill-rule="nonzero"/><path fill="#1a1a1a" d="M341.96875 545.1L346.375 533.64685L348.01562 533.64685L352.70312 545.1L350.96875 545.1L349.64062 541.6312L344.84375 541.6312L343.59375 545.1L341.96875 545.1ZM345.28125 540.39685L349.17188 540.39685L347.96875 537.225Q347.42188 535.77185 347.15625 534.85Q346.9375 535.9437 346.54688 537.0375L345.28125 540.39685ZM354.5 545.1L354.5 533.64685L356.01562 533.64685L356.01562 545.1L354.5 545.1ZM356.71875 541.4125L358.15625 541.2875Q358.25 542.14685 358.625 542.70935Q359.0 543.2562 359.78125 543.6Q360.5625 543.9281 361.53125 543.9281Q362.40625 543.9281 363.0625 543.6781Q363.73438 543.4125 364.04688 542.975Q364.375 542.52185 364.375 541.9906Q364.375 541.4437 364.0625 541.0531Q363.75 540.64685 363.03125 540.3656Q362.57812 540.1937 361.0 539.8187Q359.42188 539.4281 358.78125 539.1Q357.96875 538.6625 357.5625 538.0375Q357.15625 537.39685 357.15625 536.6Q357.15625 535.7406 357.64062 534.9906Q358.14062 534.225 359.07812 533.83435Q360.03125 533.4437 361.1875 533.4437Q362.46875 533.4437 363.4375 533.8656Q364.40625 534.27185 364.92188 535.0687Q365.45312 535.8656 365.5 536.8656L364.04688 536.975Q363.92188 535.89685 363.25 535.35Q362.57812 534.7875 361.25 534.7875Q359.875 534.7875 359.25 535.2875Q358.625 535.7875 358.625 536.5062Q358.625 537.1156 359.0625 537.52185Q359.5 537.9125 361.34375 538.33435Q363.20312 538.7562 363.89062 539.0687Q364.89062 539.52185 365.35938 540.2406Q365.84375 540.9437 365.84375 541.8656Q365.84375 542.77185 365.3125 543.58435Q364.79688 544.39685 363.8125 544.85Q362.82812 545.3031 361.60938 545.3031Q360.04688 545.3031 359.0 544.85Q357.95312 544.3812 357.34375 543.475Q356.75 542.5687 356.71875 541.4125ZM373.59375 545.1L371.04688 536.8031L372.5 536.8031L373.82812 541.58435L374.3125 543.3656Q374.34375 543.2406 374.75 541.6625L376.0625 536.8031L377.51562 536.8031L378.75 541.6156L379.17188 543.1937L379.64062 541.6L381.0625 536.8031L382.4375 536.8031L379.84375 545.1L378.375 545.1L377.0625 540.1312L376.73438 538.70935L375.0625 545.1L373.59375 545.1ZM383.0625 535.2562L383.0625 533.64685L384.46875 533.64685L384.46875 535.2562L383.0625 535.2562ZM383.0625 545.1L383.0625 536.8031L384.46875 536.8031L384.46875 545.1L383.0625 545.1ZM390.125 543.83435L390.32812 545.08435Q389.73438 545.20935 389.26562 545.20935Q388.5 545.20935 388.07812 544.975Q387.65625 544.725 387.48438 544.33435Q387.3125 543.9281 387.3125 542.6625L387.3125 537.89685L386.28125 537.89685L386.28125 536.8031L387.3125 536.8031L387.3125 534.7406L388.71875 533.89685L388.71875 536.8031L390.125 536.8031L390.125 537.89685L388.71875 537.89685L388.71875 542.7406Q388.71875 543.35 388.78125 543.52185Q388.85938 543.6937 389.03125 543.8031Q389.20312 543.89685 389.51562 543.89685Q389.75 543.89685 390.125 543.83435ZM391.0625 545.1L391.0625 533.64685L392.46875 533.64685L392.46875 537.7562Q393.45312 536.6156 394.95312 536.6156Q395.875 536.6156 396.54688 536.975Q397.23438 537.33435 397.51562 537.975Q397.8125 538.6156 397.8125 539.83435L397.8125 545.1L396.40625 545.1L396.40625 539.83435Q396.40625 538.7875 395.95312 538.3031Q395.5 537.8187 394.65625 537.8187Q394.03125 537.8187 393.48438 538.14685Q392.9375 538.475 392.70312 539.0375Q392.46875 539.58435 392.46875 540.5531L392.46875 545.1L391.0625 545.1ZM402.71875 541.4125L404.15625 541.2875Q404.25 542.14685 404.625 542.70935Q405.0 543.2562 405.78125 543.6Q406.5625 543.9281 407.53125 543.9281Q408.40625 543.9281 409.0625 543.6781Q409.73438 543.4125 410.04688 542.975Q410.375 542.52185 410.375 541.9906Q410.375 541.4437 410.0625 541.0531Q409.75 540.64685 409.03125 540.3656Q408.57812 540.1937 407.0 539.8187Q405.42188 539.4281 404.78125 539.1Q403.96875 538.6625 403.5625 538.0375Q403.15625 537.39685 403.15625 536.6Q403.15625 535.7406 403.64062 534.9906Q404.14062 534.225 405.07812 533.83435Q406.03125 533.4437 407.1875 533.4437Q408.46875 533.4437 409.4375 533.8656Q410.40625 534.27185 410.92188 535.0687Q411.45312 535.8656 411.5 536.8656L410.04688 536.975Q409.92188 535.89685 409.25 535.35Q408.57812 534.7875 407.25 534.7875Q405.875 534.7875 405.25 535.2875Q404.625 535.7875 404.625 536.5062Q404.625 537.1156 405.0625 537.52185Q405.5 537.9125 407.34375 538.33435Q409.20312 538.7562 409.89062 539.0687Q410.89062 539.52185 411.35938 540.2406Q411.84375 540.9437 411.84375 541.8656Q411.84375 542.77185 411.3125 543.58435Q410.79688 544.39685 409.8125 544.85Q408.82812 545.3031 407.60938 545.3031Q406.04688 545.3031 405.0 544.85Q403.95312 544.3812 403.34375 543.475Q402.75 542.5687 402.71875 541.4125ZM413.67188 542.0687L415.07812 541.8812Q415.32812 543.08435 415.90625 543.6156Q416.48438 544.1312 417.32812 544.1312Q418.3125 544.1312 419.0 543.4437Q419.6875 542.7562 419.6875 541.7406Q419.6875 540.77185 419.04688 540.14685Q418.42188 539.52185 417.4375 539.52185Q417.04688 539.52185 416.45312 539.6781L416.60938 538.4437Q416.75 538.45935 416.82812 538.45935Q417.73438 538.45935 418.45312 537.9906Q419.17188 537.52185 419.17188 536.5375Q419.17188 535.77185 418.64062 535.27185Q418.125 534.7562 417.29688 534.7562Q416.46875 534.7562 415.92188 535.27185Q415.375 535.7875 415.21875 536.8187L413.8125 536.5687Q414.07812 535.14685 414.98438 534.3812Q415.90625 533.6 417.26562 533.6Q418.20312 533.6 418.98438 534.0062Q419.78125 534.39685 420.1875 535.1Q420.60938 535.7875 420.60938 536.5687Q420.60938 537.3187 420.20312 537.9281Q419.8125 538.5375 419.03125 538.89685Q420.04688 539.1312 420.60938 539.8656Q421.17188 540.6 421.17188 541.70935Q421.17188 543.20935 420.07812 544.2562Q418.98438 545.3031 417.3125 545.3031Q415.8125 545.3031 414.8125 544.4125Q413.8125 543.5062 413.67188 542.0687Z" fill-rule="nonzero"/><path fill="#76b900" d="M438.0 534.6C438.0 534.0477 438.44772 533.6 439.0 533.6L449.0 533.6C449.55228 533.6 450.0 534.0477 450.0 534.6L450.0 544.6C450.0 545.1523 449.55228 545.6 449.0 545.6L439.0 545.6C438.44772 545.6 438.0 545.1523 438.0 544.6Z" fill-rule="nonzero"/><path fill="#1a1a1a" d="M457.96875 545.1L462.375 533.64685L464.01562 533.64685L468.70312 545.1L466.96875 545.1L465.64062 541.6312L460.84375 541.6312L459.59375 545.1L457.96875 545.1ZM461.28125 540.39685L465.17188 540.39685L463.96875 537.225Q463.42188 535.77185 463.15625 534.85Q462.9375 535.9437 462.54688 537.0375L461.28125 540.39685ZM470.5 545.1L470.5 533.64685L472.01562 533.64685L472.01562 545.1L470.5 545.1ZM472.71875 541.4125L474.15625 541.2875Q474.25 542.14685 474.625 542.70935Q475.0 543.2562 475.78125 543.6Q476.5625 543.9281 477.53125 543.9281Q478.40625 543.9281 479.0625 543.6781Q479.73438 543.4125 480.04688 542.975Q480.375 542.52185 480.375 541.9906Q480.375 541.4437 480.0625 541.0531Q479.75 540.64685 479.03125 540.3656Q478.57812 540.1937 477.0 539.8187Q475.42188 539.4281 474.78125 539.1Q473.96875 538.6625 473.5625 538.0375Q473.15625 537.39685 473.15625 536.6Q473.15625 535.7406 473.64062 534.9906Q474.14062 534.225 475.07812 533.83435Q476.03125 533.4437 477.1875 533.4437Q478.46875 533.4437 479.4375 533.8656Q480.40625 534.27185 480.92188 535.0687Q481.45312 535.8656 481.5 536.8656L480.04688 536.975Q479.92188 535.89685 479.25 535.35Q478.57812 534.7875 477.25 534.7875Q475.875 534.7875 475.25 535.2875Q474.625 535.7875 474.625 536.5062Q474.625 537.1156 475.0625 537.52185Q475.5 537.9125 477.34375 538.33435Q479.20312 538.7562 479.89062 539.0687Q480.89062 539.52185 481.35938 540.2406Q481.84375 540.9437 481.84375 541.8656Q481.84375 542.77185 481.3125 543.58435Q480.79688 544.39685 479.8125 544.85Q478.82812 545.3031 477.60938 545.3031Q476.04688 545.3031 475.0 544.85Q473.95312 544.3812 473.34375 543.475Q472.75 542.5687 472.71875 541.4125ZM488.17188 545.1L488.17188 533.64685L489.6875 533.64685L489.6875 543.7406L495.32812 543.7406L495.32812 545.1L488.17188 545.1ZM496.53125 540.9437Q496.53125 538.64685 497.8125 537.5375Q498.89062 536.6156 500.42188 536.6156Q502.14062 536.6156 503.21875 537.7406Q504.3125 538.85 504.3125 540.83435Q504.3125 542.4281 503.82812 543.35Q503.34375 544.27185 502.42188 544.7875Q501.51562 545.2875 500.42188 545.2875Q498.6875 545.2875 497.60938 544.1781Q496.53125 543.0531 496.53125 540.9437ZM497.98438 540.9437Q497.98438 542.5375 498.67188 543.33435Q499.375 544.1312 500.42188 544.1312Q501.46875 544.1312 502.15625 543.33435Q502.85938 542.5375 502.85938 540.89685Q502.85938 539.3656 502.15625 538.5687Q501.46875 537.77185 500.42188 537.77185Q499.375 537.77185 498.67188 538.5687Q497.98438 539.35 497.98438 540.9437ZM511.46875 542.0531L512.8594 542.2406Q512.625 543.6625 511.6875 544.475Q510.76562 545.2875 509.40625 545.2875Q507.70312 545.2875 506.65625 544.1781Q505.625 543.0531 505.625 540.975Q505.625 539.6312 506.0625 538.6312Q506.51562 537.6156 507.42188 537.1156Q508.34375 536.6156 509.40625 536.6156Q510.76562 536.6156 511.625 537.3031Q512.4844 537.975 512.71875 539.2406L511.35938 539.4437Q511.15625 538.6156 510.65625 538.1937Q510.17188 537.77185 509.46875 537.77185Q508.40625 537.77185 507.73438 538.5375Q507.07812 539.2875 507.07812 540.9437Q507.07812 542.6156 507.71875 543.3812Q508.35938 544.1312 509.39062 544.1312Q510.21875 544.1312 510.76562 543.6312Q511.32812 543.1156 511.46875 542.0531ZM519.46875 544.0687Q518.6875 544.7406 517.96875 545.02185Q517.25 545.2875 516.4219 545.2875Q515.0469 545.2875 514.3125 544.6156Q513.5781 543.9437 513.5781 542.9125Q513.5781 542.3031 513.8594 541.8031Q514.1406 541.2875 514.5781 540.9906Q515.03125 540.6781 515.59375 540.52185Q516.0156 540.4125 516.84375 540.3187Q518.5469 540.1156 519.3594 539.83435Q519.3594 539.5375 519.3594 539.45935Q519.3594 538.6 518.96875 538.2562Q518.4219 537.77185 517.3594 537.77185Q516.375 537.77185 515.8906 538.1312Q515.4219 538.475 515.2031 539.35L513.8281 539.1625Q514.0156 538.2875 514.4375 537.7406Q514.875 537.1937 515.6875 536.9125Q516.5 536.6156 517.5625 536.6156Q518.625 536.6156 519.28125 536.8656Q519.9531 537.1156 520.2656 537.4906Q520.5781 537.8656 520.7031 538.4437Q520.78125 538.8031 520.78125 539.7406L520.78125 541.6156Q520.78125 543.58435 520.8594 544.1Q520.9531 544.6156 521.21875 545.1L519.75 545.1Q519.53125 544.6625 519.46875 544.0687ZM519.3594 540.9281Q518.59375 541.2406 517.0625 541.45935Q516.1875 541.58435 515.8281 541.7406Q515.46875 541.89685 515.2656 542.20935Q515.0781 542.5062 515.0781 542.8656Q515.0781 543.4281 515.5 543.8031Q515.9375 544.1781 516.75 544.1781Q517.5625 544.1781 518.1875 543.83435Q518.8281 543.475 519.125 542.85Q519.3594 542.3812 519.3594 541.4437L519.3594 540.9281ZM523.03125 545.1L523.03125 533.64685L524.4375 533.64685L524.4375 545.1L523.03125 545.1Z" fill-rule="nonzero"/><path fill="#757575" d="M326.95312 47.9L325.1875 47.9L325.1875 36.696877Q324.5625 37.30625 323.53125 37.915627Q322.5 38.509377 321.67188 38.821877L321.67188 37.11875Q323.15625 36.43125 324.25 35.446877Q325.35938 34.446877 325.8125 33.525L326.95312 33.525L326.95312 47.9ZM331.32812 40.8375Q331.32812 38.30625 331.84375 36.759377Q332.375 35.196877 333.40625 34.36875Q334.4375 33.525 336.0 33.525Q337.15625 33.525 338.01562 33.99375Q338.89062 34.446877 339.45312 35.321877Q340.01562 36.196877 340.34375 37.4625Q340.67188 38.7125 340.67188 40.8375Q340.67188 43.353127 340.14062 44.9Q339.625 46.446877 338.59375 47.30625Q337.57812 48.15 336.0 48.15Q333.92188 48.15 332.75 46.665627Q331.32812 44.86875 331.32812 40.8375ZM333.14062 40.8375Q333.14062 44.36875 333.95312 45.540627Q334.78125 46.696877 336.0 46.696877Q337.20312 46.696877 338.03125 45.525Q338.85938 44.353127 338.85938 40.8375Q338.85938 37.30625 338.03125 36.15Q337.20312 34.978127 335.98438 34.978127Q334.76562 34.978127 334.04688 36.009377Q333.14062 37.30625 333.14062 40.8375ZM348.98438 47.9L348.98438 33.5875L351.84375 33.5875L355.21875 43.7125Q355.6875 45.134377 355.90625 45.8375Q356.15625 45.05625 356.67188 43.540627L360.09375 33.5875L362.64062 33.5875L362.64062 47.9L360.82812 47.9L360.82812 35.915627L356.65625 47.9L354.95312 47.9L350.8125 35.7125L350.8125 47.9L348.98438 47.9ZM365.82812 35.603127L365.82812 33.5875L367.59375 33.5875L367.59375 35.603127L365.82812 35.603127ZM365.82812 47.9L365.82812 37.525L367.59375 37.525L367.59375 47.9L365.82812 47.9ZM369.96875 47.9L369.96875 33.5875L375.34375 33.5875Q376.98438 33.5875 377.96875 34.025Q378.95312 34.446877 379.51562 35.353127Q380.07812 36.259377 380.07812 37.24375Q380.07812 38.165627 379.57812 38.978127Q379.09375 39.790627 378.07812 40.275Q379.375 40.665627 380.07812 41.5875Q380.78125 42.49375 380.78125 43.74375Q380.78125 44.759377 380.34375 45.61875Q379.92188 46.478127 379.29688 46.946877Q378.67188 47.415627 377.73438 47.665627Q376.79688 47.9 375.42188 47.9L369.96875 47.9ZM371.85938 39.603127L374.95312 39.603127Q376.21875 39.603127 376.76562 39.43125Q377.48438 39.2125 377.84375 38.728127Q378.21875 38.228127 378.21875 37.4625Q378.21875 36.759377 377.875 36.2125Q377.53125 35.665627 376.89062 35.478127Q376.26562 35.275 374.71875 35.275L371.85938 35.275L371.85938 39.603127ZM371.85938 46.2125L375.42188 46.2125Q376.34375 46.2125 376.71875 46.134377Q377.375 46.025 377.8125 45.759377Q378.25 45.478127 378.53125 44.9625Q378.8125 44.43125 378.8125 43.74375Q378.8125 42.946877 378.40625 42.353127Q378.0 41.759377 377.26562 41.525Q376.53125 41.290627 375.17188 41.290627L371.85938 41.290627L371.85938 46.2125ZM389.04688 47.9L389.04688 33.5875L394.4375 33.5875Q395.875 33.5875 396.625 33.7125Q397.67188 33.9 398.39062 34.4Q399.10938 34.884377 399.53125 35.775Q399.96875 36.665627 399.96875 37.728127Q399.96875 39.55625 398.79688 40.821877Q397.64062 42.071877 394.60938 42.071877L390.9375 42.071877L390.9375 47.9L389.04688 47.9ZM390.9375 40.384377L394.64062 40.384377Q396.46875 40.384377 397.23438 39.7125Q398.01562 39.025 398.01562 37.775Q398.01562 36.884377 397.5625 36.24375Q397.10938 35.603127 396.375 35.4Q395.89062 35.275 394.59375 35.275L390.9375 35.275L390.9375 40.384377ZM411.4375 33.5875L413.32812 33.5875L413.32812 41.853127Q413.32812 44.009377 412.84375 45.290627Q412.35938 46.55625 411.07812 47.353127Q409.8125 48.15 407.73438 48.15Q405.71875 48.15 404.4375 47.4625Q403.17188 46.759377 402.625 45.446877Q402.07812 44.134377 402.07812 41.853127L402.07812 33.5875L403.96875 33.5875L403.96875 41.8375Q403.96875 43.7125 404.3125 44.603127Q404.65625 45.478127 405.5 45.9625Q406.34375 46.43125 407.57812 46.43125Q409.65625 46.43125 410.54688 45.49375Q411.4375 44.540627 411.4375 41.8375L411.4375 33.5875ZM418.6875 47.9L418.6875 35.275L413.96875 35.275L413.96875 33.5875L425.3125 33.5875L425.3125 35.275L420.57812 35.275L420.57812 47.9L418.6875 47.9Z" fill-rule="nonzero"/></svg>